<?xml version="1.0" encoding="UTF-8"?>
<svg version="1.1" xmlns="http://www.w3.org/2000/svg" width="463" height="539">
<path d="M0 0 C0.79806344 0.00054477 1.59612688 0.00108953 2.41837406 0.00165081 C3.3339307 -0.00254368 4.24948734 -0.00673817 5.19278812 -0.01105976 C6.70377834 -0.0026305 6.70377834 -0.0026305 8.24529362 0.00596905 C9.30390598 0.0040707 10.36251835 0.00217236 11.45320988 0.00021648 C14.9667425 -0.00350041 18.48007025 0.00722665 21.99358463 0.01842022 C24.42734598 0.0196117 26.8611078 0.02006525 29.29486942 0.01980877 C34.40190849 0.02137526 39.50887762 0.02967705 44.61589909 0.04307842 C51.17119039 0.06005946 57.72640468 0.0638931 64.28171539 0.06313324 C69.30961693 0.06340485 74.33750154 0.06888482 79.36539745 0.07613468 C81.78278888 0.07932319 84.20018223 0.08128918 86.61757565 0.08202839 C89.99351503 0.08419051 93.36937189 0.09293236 96.74529362 0.1036253 C97.7505962 0.10317211 98.75589878 0.10271893 99.79166508 0.10225201 C101.16922977 0.10864948 101.16922977 0.10864948 102.57462406 0.1151762 C103.37306453 0.11685205 104.17150499 0.11852789 104.99414062 0.12025452 C107.05999088 0.24888897 107.05999088 0.24888897 110.05999088 1.24888897 C111.06442782 12.41217101 111.20741033 23.48366425 111.19280338 34.68248272 C111.19347919 36.53226007 111.19445151 38.38203733 111.19570255 40.23181438 C111.19716689 44.08687985 111.19506625 47.94192195 111.19036198 51.79698467 C111.18466953 56.6961478 111.18794877 61.59525607 111.19393444 66.49441719 C111.19757787 70.30808188 111.19638418 74.12173394 111.19380665 77.93539906 C111.19314759 79.73999889 111.19392934 81.54459993 111.1962862 83.34919834 C111.20718573 94.03714017 110.89482336 104.59130321 110.05999088 115.24888897 C102.46999088 115.24888897 94.87999088 115.24888897 87.05999088 115.24888897 C86.90521171 106.46754009 86.75629768 97.68614124 86.61702728 88.90453243 C86.55210192 84.82458784 86.48484709 80.74471246 86.41179752 76.66490459 C86.10566323 59.47949881 85.88973724 42.41260902 87.05999088 25.24888897 C80.12999088 25.24888897 73.19999088 25.24888897 66.05999088 25.24888897 C66.0652277 27.93972637 66.07046452 30.63056377 66.07586002 33.4029417 C66.09239498 42.27180845 66.10346173 51.14067586 66.11180305 60.00955391 C66.11703214 65.38922659 66.12413023 70.76888354 66.13543034 76.14854717 C66.14625833 81.3356374 66.15226753 86.52271246 66.15486813 91.70981312 C66.15672254 93.69345177 66.16034345 95.67708955 66.16572094 97.66072178 C66.17293021 100.42898033 66.17398187 103.19717535 66.17351627 105.9654417 C66.17711155 106.79406216 66.18070683 107.62268261 66.18441105 108.47641277 C66.17404304 114.13483681 66.17404304 114.13483681 65.05999088 115.24888897 C63.36440363 115.3482105 61.66473341 115.37968904 59.96624088 115.38170147 C58.93627995 115.38299053 57.90631901 115.38427959 56.84514713 115.38560772 C55.21899479 115.37980694 55.21899479 115.37980694 53.55999088 115.37388897 C52.47588932 115.37775616 51.39178776 115.38162334 50.27483463 115.38560772 C49.2448737 115.38431866 48.21491276 115.38302959 47.15374088 115.38170147 C46.20176823 115.38057354 45.24979557 115.37944561 44.26897526 115.3782835 C42.05999088 115.24888897 42.05999088 115.24888897 41.05999088 114.24888897 C40.96481285 111.4794993 40.93444823 108.73511738 40.94646549 105.9654417 C40.94631947 105.0972279 40.94617344 104.22901409 40.94602299 103.33449078 C40.94672243 100.45046311 40.95451626 97.56649917 40.96233463 94.68248272 C40.9641987 92.6885103 40.96562266 90.69453742 40.96662235 88.70056438 C40.9704484 83.44143195 40.98027943 78.18232694 40.99132633 72.92320538 C41.00153858 67.56106722 41.00611957 62.19892466 41.01116276 56.83677959 C41.02190162 46.3074687 41.03949912 35.7781854 41.05999088 25.24888897 C34.12999088 25.24888897 27.19999088 25.24888897 20.05999088 25.24888897 C20.05999088 54.94888897 20.05999088 84.64888897 20.05999088 115.24888897 C12.46999088 115.24888897 4.87999088 115.24888897 -2.94000912 115.24888897 C-4.51909123 113.66980686 -4.06925451 112.08247002 -4.07372189 109.89013958 C-4.07798687 108.94926998 -4.08225185 108.00840038 -4.08664608 107.03901958 C-4.08619289 105.99847424 -4.08573971 104.95792889 -4.08527279 103.88585186 C-4.0886314 102.79651852 -4.09199001 101.70718517 -4.0954504 100.58484173 C-4.10499303 96.96373147 -4.10690515 93.34266729 -4.10797787 89.72154522 C-4.11118807 87.21669781 -4.11455196 84.7118506 -4.11806393 82.20700359 C-4.12406345 76.94858276 -4.12594564 71.69017373 -4.12531185 66.4317503 C-4.12471091 60.34748542 -4.13526427 54.26330916 -4.15105551 48.17906672 C-4.1656873 42.33406814 -4.16930046 36.48910476 -4.16870213 30.6440897 C-4.16988632 28.15329851 -4.17433244 25.66250674 -4.18203449 23.17172718 C-4.19177895 19.69484916 -4.18897836 16.21820196 -4.18292904 12.74132061 C-4.18854855 11.70279949 -4.19416805 10.66427837 -4.19995785 9.59428692 C-4.19576336 8.6505975 -4.19156887 7.70690807 -4.18724728 6.734622 C-4.18779204 5.91183789 -4.18833681 5.08905378 -4.18889809 4.24133682 C-3.83585805 1.41512135 -2.83680093 0.3639408 0 0 Z " fill="#E891F0" transform="translate(187.94000911712646,215.7511110305786)"/>
<path d="M0 0 C0.93809509 -0.00137466 1.87619019 -0.00274933 2.8427124 -0.00416565 C4.38343163 0.00122726 4.38343163 0.00122726 5.95527649 0.00672913 C7.57990311 0.00651009 7.57990311 0.00651009 9.23735046 0.00628662 C12.82474252 0.00698444 16.41208294 0.0147708 19.99946594 0.02259827 C22.48382539 0.02446291 24.96818521 0.02588659 27.45254517 0.02688599 C33.32796322 0.03031672 39.20336215 0.03820181 45.07877237 0.04823548 C52.42407869 0.06050718 59.76938609 0.0658799 67.11470032 0.07142639 C80.21822539 0.0821573 93.32173512 0.09903767 106.42524719 0.12025452 C106.45411703 4.09940611 106.47200125 8.07853105 106.48774719 12.05775452 C106.4961261 13.19406311 106.504505 14.3303717 106.51313782 15.50111389 C106.51636047 16.58070374 106.51958313 17.66029358 106.52290344 18.77259827 C106.52814026 19.7728302 106.53337708 20.77306213 106.53877258 21.80360413 C106.42524719 24.12025452 106.42524719 24.12025452 105.42524719 25.12025452 C102.68719515 25.24542089 99.97313 25.30633125 97.2335968 25.32557678 C96.37513657 25.33547638 95.51667633 25.34537598 94.63220215 25.35557556 C91.78069361 25.3872876 88.92916837 25.41198615 86.07759094 25.43666077 C84.10603388 25.45722193 82.13448131 25.47821817 80.16293335 25.49963379 C74.96303434 25.55494105 69.76309499 25.60431202 64.56312561 25.65248108 C59.26127005 25.70263308 53.95947339 25.75835196 48.65766907 25.81361389 C38.24691012 25.92130126 27.83610141 26.02220844 17.42524719 26.12025452 C17.09524719 32.72025452 16.76524719 39.32025452 16.42524719 46.12025452 C46.12524719 46.12025452 75.82524719 46.12025452 106.42524719 46.12025452 C106.42524719 53.71025452 106.42524719 61.30025452 106.42524719 69.12025452 C104.60286057 70.94264114 102.07768637 70.24023148 99.652771 70.24467468 C98.82415054 70.24107941 97.99553009 70.23748413 97.14179993 70.23377991 C95.83947922 70.23399895 95.83947922 70.23399895 94.510849 70.23422241 C91.62682133 70.23352297 88.7428574 70.22572914 85.85884094 70.21791077 C83.86486852 70.2160467 81.87089565 70.21462274 79.87692261 70.21362305 C74.61779017 70.20979699 69.35868516 70.19996597 64.0995636 70.18891907 C58.73742545 70.17870682 53.37528288 70.17412583 48.01313782 70.16908264 C37.48382693 70.15834378 26.95454363 70.14074628 16.42524719 70.12025452 C16.42524719 77.05025452 16.42524719 83.98025452 16.42524719 91.12025452 C46.12524719 91.12025452 75.82524719 91.12025452 106.42524719 91.12025452 C106.42524719 99.04025452 106.42524719 106.96025452 106.42524719 115.12025452 C68.80524719 115.12025452 31.18524719 115.12025452 -7.57475281 115.12025452 C-7.57475281 77.50025452 -7.57475281 39.88025452 -7.57475281 1.12025452 C-4.71711177 0.1677075 -2.96257152 -0.00334754 0 0 Z " fill="#E890F0" transform="translate(56.57475280761719,215.87974548339844)"/>
<path d="M0 0 C0.8690799 -0.00281982 1.73815979 -0.00563965 2.63357544 -0.00854492 C4.05961594 -0.00550858 4.05961594 -0.00550858 5.51446533 -0.00241089 C7.01981339 -0.00503937 7.01981339 -0.00503937 8.55557251 -0.00772095 C11.88205685 -0.01213151 15.20848824 -0.00920335 18.53497314 -0.00582886 C20.84562185 -0.00650234 23.15627048 -0.00747273 25.46691895 -0.00872803 C30.3157824 -0.0102041 35.16462745 -0.00805413 40.01348877 -0.00338745 C46.22196297 0.00229704 52.43039383 -0.00096162 58.63886642 -0.00695992 C63.41386235 -0.01057884 68.18884806 -0.00942059 72.9638443 -0.00683212 C75.2523321 -0.00616588 77.54082084 -0.0069807 79.82930756 -0.00931168 C83.03428084 -0.01185859 86.2391847 -0.00796825 89.44415283 -0.00241089 C90.38674957 -0.00443512 91.32934631 -0.00645935 92.30050659 -0.00854492 C93.18086578 -0.0057251 94.06122498 -0.00290527 94.96826172 0 C96.10313585 0.00056554 96.10313585 0.00056554 97.26093674 0.0011425 C100.43810619 0.16254443 103.58880502 0.67708463 106.73809814 1.12698364 C106.73809814 23.89698364 106.73809814 46.66698364 106.73809814 70.12698364 C77.03809814 70.12698364 47.33809814 70.12698364 16.73809814 70.12698364 C16.73809814 84.64698364 16.73809814 99.16698364 16.73809814 114.12698364 C15.73809814 115.12698364 15.73809814 115.12698364 13.51324463 115.24050903 C12.07573853 115.23265381 12.07573853 115.23265381 10.60919189 115.22463989 C9.05748291 115.21980591 9.05748291 115.21980591 7.47442627 115.21487427 C6.38581299 115.20649536 5.29719971 115.19811646 4.17559814 115.18948364 C2.53687744 115.18271606 2.53687744 115.18271606 0.86505127 115.17581177 C-1.84398944 115.1639819 -4.55291008 115.14666085 -7.26190186 115.12698364 C-8.02307892 103.30519305 -8.41284953 91.54626128 -8.39471436 79.70120239 C-8.39539171 78.09571824 -8.39636528 76.49023418 -8.39761353 74.88475037 C-8.39907153 71.54955044 -8.39699894 68.21437763 -8.39227295 64.87918091 C-8.38659006 60.67059616 -8.38994223 56.46207489 -8.39572525 52.25349236 C-8.41549403 35.18713268 -8.37920863 18.16527564 -7.26190186 1.12698364 C-4.49222574 0.20375827 -2.8554178 0.00142577 0 0 Z M16.73809814 25.12698364 C16.73809814 32.05698364 16.73809814 38.98698364 16.73809814 46.12698364 C25.19577545 46.14953745 33.65342955 46.16790034 42.11112881 46.17879581 C46.03798473 46.18402395 49.96481909 46.19112034 53.8916626 46.2024231 C57.67824072 46.21325445 61.46479804 46.219261 65.25139046 46.22186089 C66.69914134 46.22371469 68.14689103 46.22733445 69.5946331 46.2327137 C71.61566949 46.23992732 73.63672662 46.24039172 75.65777588 46.24050903 C76.81027328 46.24272964 77.96277069 46.24495026 79.15019226 46.24723816 C81.66822961 46.42135959 81.66822961 46.42135959 82.73809814 45.12698364 C82.73809814 38.52698364 82.73809814 31.92698364 82.73809814 25.12698364 C60.95809814 25.12698364 39.17809814 25.12698364 16.73809814 25.12698364 Z " fill="#E890F0" transform="translate(327.26190185546875,215.87301635742188)"/>
<path d="M0 0 C1.84105301 0.36511135 1.84105301 0.36511135 4 1 C5.51219849 1.09693254 7.02790098 1.14576914 8.54315186 1.15821838 C9.90187157 1.17290161 9.90187157 1.17290161 11.28804016 1.18788147 C12.76726204 1.19651466 12.76726204 1.19651466 14.27636719 1.20532227 C15.84269142 1.22017166 15.84269142 1.22017166 17.44065857 1.23532104 C20.89270764 1.26691248 24.34477046 1.29168428 27.796875 1.31640625 C30.19012815 1.3369778 32.58337769 1.35797433 34.97662354 1.37937927 C41.27631705 1.43457911 47.57604323 1.48399767 53.87579346 1.53222656 C60.30394398 1.58245677 66.73204704 1.63813492 73.16015625 1.69335938 C85.77339695 1.80091544 98.38667887 1.90236614 111 2 C111 5.3 111 8.6 111 12 C110.67 12 110.34 12 110 12 C110 9.03 110 6.06 110 3 C74.69 3.33 39.38 3.66 3 4 C1.28160358 7.43679284 1.88074504 11.39114577 1.90234375 15.17211914 C1.90380402 16.12355804 1.90526428 17.07499695 1.9067688 18.05526733 C1.91058171 20.12710651 1.91670549 22.19894239 1.92483521 24.27076912 C1.93757346 27.55409012 1.94410877 30.8373708 1.94897461 34.12071228 C1.96236557 42.28248156 1.9864767 50.44421296 2.01037598 58.60595703 C2.030148 65.48995691 2.04577743 72.3739422 2.05593872 79.25796318 C2.0623986 82.48450703 2.07491151 85.71099097 2.08764648 88.93751526 C2.09128217 90.9323827 2.0946335 92.92725068 2.09765625 94.92211914 C2.10282257 95.81234268 2.10798889 96.70256622 2.11331177 97.61976624 C2.1137751 103.15697983 1.70111652 108.5061083 1 114 C0.67 114 0.34 114 0 114 C-0.7614809 90.74272725 -1.29075292 67.48722715 -1.61254883 44.21972656 C-1.67450948 39.78380296 -1.74864774 35.34815756 -1.82492352 30.91246033 C-1.88219659 27.4537373 -1.93060753 23.99493214 -1.976511 20.53604126 C-1.99984805 18.89648273 -2.02658109 17.25696878 -2.05682945 15.61752319 C-2.0977104 13.36091397 -2.1260289 11.10448825 -2.15112305 8.84765625 C-2.17031296 7.56898682 -2.18950287 6.29031738 -2.20927429 4.97290039 C-2 2 -2 2 0 0 Z " fill="#F393FB" transform="translate(186,216)"/>
<path d="M0 0 C0.33 0 0.66 0 1 0 C1 2.31 1 4.62 1 7 C1.66 7.33 2.32 7.66 3 8 C3 20.54 3 33.08 3 46 C2.67 46 2.34 46 2 46 C1.67 49.96 1.34 53.92 1 58 C0.67 58 0.34 58 0 58 C0 38.86 0 19.72 0 0 Z " fill="#F2A8F8" transform="translate(251,265)"/>
<path d="M0 0 C0.33 0 0.66 0 1 0 C1.78244934 5.39547561 2.09558857 10.54553004 1.87890625 16 C1.85529526 16.7211499 1.83168427 17.4422998 1.80735779 18.18530273 C1.73163787 20.45711624 1.6472284 22.72850651 1.5625 25 C1.50918712 26.55336567 1.4564476 28.10675113 1.40429688 29.66015625 C1.2761494 33.44036502 1.14021558 37.22022041 1 41 C0.34 41 -0.32 41 -1 41 C-1.02464705 35.32169922 -1.04283462 29.64342931 -1.05493164 23.96508789 C-1.05997256 22.03181415 -1.06680519 20.09854424 -1.07543945 18.1652832 C-1.08751565 15.39273128 -1.09323057 12.62022959 -1.09765625 9.84765625 C-1.10281754 8.97786636 -1.10797882 8.10807648 -1.11329651 7.21192932 C-1.11349185 5.14094186 -1.06208168 3.07005676 -1 1 C-0.67 0.67 -0.34 0.34 0 0 Z " fill="#D989E4" transform="translate(320,239)"/>
<path d="M0 0 C0.99 0.33 1.98 0.66 3 1 C3 3.97 3 6.94 3 10 C2.67 10 2.34 10 2 10 C1.67 24.52 1.34 39.04 1 54 C0.67 54 0.34 54 0 54 C0 36.18 0 18.36 0 0 Z " fill="#F2A4F9" transform="translate(296,241)"/>
<path d="M0 0 C0.84755859 0.00322266 1.69511719 0.00644531 2.56835938 0.00976562 C3.8899707 0.02233398 3.8899707 0.02233398 5.23828125 0.03515625 C6.57729492 0.04192383 6.57729492 0.04192383 7.94335938 0.04882812 C10.14590112 0.06060642 12.34830724 0.07705461 14.55078125 0.09765625 C14.55078125 0.75765625 14.55078125 1.41765625 14.55078125 2.09765625 C7.89440282 3.33605224 1.30358765 3.18904761 -5.44921875 3.09765625 C-5.77921875 4.08765625 -6.10921875 5.07765625 -6.44921875 6.09765625 C-6.77921875 4.44765625 -7.10921875 2.79765625 -7.44921875 1.09765625 C-4.6251011 0.1562837 -2.92003843 -0.01959757 0 0 Z " fill="#D082DC" transform="translate(56.44921875,215.90234375)"/>
<path d="M0 0 C0.33 0 0.66 0 1 0 C1.06058594 1.09699219 1.12117188 2.19398438 1.18359375 3.32421875 C1.26804498 4.77865654 1.35269066 6.23308305 1.4375 7.6875 C1.47681641 8.40873047 1.51613281 9.12996094 1.55664062 9.87304688 C1.73993711 12.96088764 1.95588016 15.81072851 2.66015625 18.83203125 C3 21 3 21 1 24 C0.34 23.67 -0.32 23.34 -1 23 C-0.67 15.41 -0.34 7.82 0 0 Z " fill="#F694FD" transform="translate(411,240)"/>
<path d="M0 0 C0.33 0 0.66 0 1 0 C1 3.3 1 6.6 1 10 C0.01 10 -0.98 10 -2 10 C-2.17942163 6.05272412 -2.09350689 3.4019487 0 0 Z " fill="#D87AE1" transform="translate(231,320)"/>
</svg>
